<svg xmlns="http://www.w3.org/2000/svg" viewBox="0 0 240 240" width="240" height="240">
  <title>Freelingo cast — bruno</title>
  <desc>Original work for Freelingo (AGPL-3.0). Speech-bubble avatar for S034 and tableau sprite for S020. Identity is carried by plate hue, silhouette and garment together, so losing any one channel still leaves two.</desc>

  <circle cx="120" cy="120" r="116" fill="#49C0F8"/>
  <path d="M120 150 C160 150 190 180 196 218 C176 232 150 240 120 240 C90 240 64 232 44 218 C50 180 80 150 120 150 Z" fill="#FFAB33"/>
  <ellipse cx="120" cy="112" rx="54" ry="58" fill="#C68642"/>
  <path d="M62 82 C62 50 178 50 178 82 L192 82 C196 82 196 94 190 94 L58 94 C52 94 52 82 56 82 Z" fill="#3C3C3C"/>
  <path d="M68 122 C68 168 92 190 120 190 C148 190 172 168 172 122 C164 156 146 164 120 164 C94 164 76 156 68 122 Z" fill="#3C3C3C"/>
  <circle cx="100" cy="110" r="9" fill="#3C3C3C"/>
  <circle cx="140" cy="110" r="9" fill="#3C3C3C"/>
  <path d="M104 140 C112 150 128 150 136 140" fill="none" stroke="#3C3C3C" stroke-width="8"/>
</svg>
